<?xml version="1.0" encoding="UTF-8"?>
<svg id="_图层_1" xmlns="http://www.w3.org/2000/svg" version="1.1" viewBox="0 0 512 512">
  <!-- Generator: Adobe Illustrator 29.3.1, SVG Export Plug-In . SVG Version: 2.1.0 Build 151)  -->
  <defs>
    <style>
      .st0 {
        fill: #fff;
      }

      .st1 {
        fill: #d7e6ff;
      }

      .st2 {
        fill: #33a7e2;
      }
    </style>
  </defs>
  <rect class="st2" width="512" height="512"/>
  <path class="st1" d="M330,237.5c40.8,0,73.8,33.1,73.8,73.8v73.8h-73.8c-40.8,0-73.8-33.1-73.8-73.8s33.1-73.8,73.8-73.8h0Z"/>
  <g>
    <path class="st0" d="M103.1,377.9v-128.1c0-70.6,57.4-128.1,128.1-128.1s128.1,57.4,128.1,128.1-57.5,128.1-128.1,128.1H103.1Z"/>
    <path class="st2" d="M231.2,126.8c68,0,123.1,55.1,123.1,123.1s-55.1,123.1-123.1,123.1h-123.1v-123.1c0-68,55.1-123.1,123.1-123.1M231.2,116.8c-35.5,0-69,13.8-94.1,39-25.1,25.1-39,58.6-39,94.1v133.1h133.1c35.5,0,69-13.8,94.1-39,25.1-25.1,39-58.5,39-94.1s-13.8-69-39-94.1c-25.1-25.1-58.5-39-94.1-39h0Z"/>
  </g>
  <path class="st2" d="M280.2,192.7c11.1-.2,6.6,13.1,4.8,19.6-6.4,22.8-15.2,45.6-23.1,67.9-2.8,8-5.2,16.1-8.3,24s-7.7,20.8-17.1,12.7-10-15.8-13.2-22.6-5-11.3-7.8-16.7c-4.2-7.9-8.1-9.9-15.9-13.7s-16.7-7.6-25.1-11.5c-5.5-2.6-14.5-8.7-11-15.8,1.8-3.8,6.2-5.7,9.8-7.2,12.3-5,25.4-9,38-13.4,17.8-6.3,35.5-13.3,53.4-19.3,4.6-1.5,10.7-3.8,15.5-3.9h0Z"/>
</svg>